<mxfile host="65bd71144e">
    <diagram name="Page-1" id="SbCwEatRfboCGHsUJ462">
        <mxGraphModel dx="1460" dy="1034" grid="0" gridSize="10" guides="1" tooltips="1" connect="1" arrows="1" fold="1" page="1" pageScale="1" pageWidth="827" pageHeight="1169" math="0" shadow="0">
            <root>
                <mxCell id="0"/>
                <mxCell id="1" parent="0"/>
                <mxCell id="tvJJy_Gzf4VP1QdcMVoE-154" value="" style="rounded=1;whiteSpace=wrap;html=1;dashed=1;" parent="1" vertex="1">
                    <mxGeometry x="504" y="64" width="287" height="689" as="geometry"/>
                </mxCell>
                <mxCell id="tvJJy_Gzf4VP1QdcMVoE-2" style="edgeStyle=orthogonalEdgeStyle;rounded=0;orthogonalLoop=1;jettySize=auto;html=1;entryX=0;entryY=0.5;entryDx=0;entryDy=0;" parent="1" source="tvJJy_Gzf4VP1QdcMVoE-1" target="tvJJy_Gzf4VP1QdcMVoE-4" edge="1">
                    <mxGeometry relative="1" as="geometry">
                        <mxPoint x="236" y="251" as="targetPoint"/>
                    </mxGeometry>
                </mxCell>
                <mxCell id="tvJJy_Gzf4VP1QdcMVoE-34" style="edgeStyle=orthogonalEdgeStyle;rounded=0;orthogonalLoop=1;jettySize=auto;html=1;endArrow=none;endFill=0;entryX=-0.027;entryY=0.581;entryDx=0;entryDy=0;entryPerimeter=0;" parent="1" source="tvJJy_Gzf4VP1QdcMVoE-1" target="tvJJy_Gzf4VP1QdcMVoE-35" edge="1">
                    <mxGeometry relative="1" as="geometry">
                        <mxPoint x="168.98399999999992" y="354.02" as="targetPoint"/>
                    </mxGeometry>
                </mxCell>
                <mxCell id="tvJJy_Gzf4VP1QdcMVoE-1" value="measureAll" style="rounded=1;whiteSpace=wrap;html=1;" parent="1" vertex="1">
                    <mxGeometry x="20" y="215" width="120" height="60" as="geometry"/>
                </mxCell>
                <mxCell id="tvJJy_Gzf4VP1QdcMVoE-5" style="edgeStyle=orthogonalEdgeStyle;rounded=0;orthogonalLoop=1;jettySize=auto;html=1;entryX=0;entryY=0.5;entryDx=0;entryDy=0;" parent="1" source="tvJJy_Gzf4VP1QdcMVoE-4" target="tvJJy_Gzf4VP1QdcMVoE-8" edge="1">
                    <mxGeometry relative="1" as="geometry">
                        <mxPoint x="444" y="245" as="targetPoint"/>
                    </mxGeometry>
                </mxCell>
                <mxCell id="tvJJy_Gzf4VP1QdcMVoE-10" style="edgeStyle=orthogonalEdgeStyle;rounded=0;orthogonalLoop=1;jettySize=auto;html=1;entryX=0;entryY=0.5;entryDx=0;entryDy=0;" parent="1" source="tvJJy_Gzf4VP1QdcMVoE-4" target="tvJJy_Gzf4VP1QdcMVoE-9" edge="1">
                    <mxGeometry relative="1" as="geometry"/>
                </mxCell>
                <mxCell id="tvJJy_Gzf4VP1QdcMVoE-11" style="edgeStyle=orthogonalEdgeStyle;rounded=0;orthogonalLoop=1;jettySize=auto;html=1;entryX=0;entryY=0.5;entryDx=0;entryDy=0;" parent="1" source="tvJJy_Gzf4VP1QdcMVoE-4" target="tvJJy_Gzf4VP1QdcMVoE-7" edge="1">
                    <mxGeometry relative="1" as="geometry"/>
                </mxCell>
                <mxCell id="tvJJy_Gzf4VP1QdcMVoE-4" value="Quicksort measure" style="rounded=1;whiteSpace=wrap;html=1;" parent="1" vertex="1">
                    <mxGeometry x="187" y="215" width="120" height="60" as="geometry"/>
                </mxCell>
                <mxCell id="tvJJy_Gzf4VP1QdcMVoE-49" style="edgeStyle=orthogonalEdgeStyle;rounded=0;orthogonalLoop=1;jettySize=auto;html=1;" parent="1" source="tvJJy_Gzf4VP1QdcMVoE-7" target="tvJJy_Gzf4VP1QdcMVoE-47" edge="1">
                    <mxGeometry relative="1" as="geometry"/>
                </mxCell>
                <mxCell id="tvJJy_Gzf4VP1QdcMVoE-7" value="random case" style="rounded=1;whiteSpace=wrap;html=1;" parent="1" vertex="1">
                    <mxGeometry x="381" y="106" width="120" height="60" as="geometry"/>
                </mxCell>
                <mxCell id="tvJJy_Gzf4VP1QdcMVoE-8" value="best case" style="rounded=1;whiteSpace=wrap;html=1;" parent="1" vertex="1">
                    <mxGeometry x="381" y="215" width="120" height="60" as="geometry"/>
                </mxCell>
                <mxCell id="tvJJy_Gzf4VP1QdcMVoE-9" value="worst case" style="rounded=1;whiteSpace=wrap;html=1;" parent="1" vertex="1">
                    <mxGeometry x="381" y="331" width="120" height="60" as="geometry"/>
                </mxCell>
                <mxCell id="tvJJy_Gzf4VP1QdcMVoE-35" value="&lt;font style=&quot;font-size: 30px;&quot;&gt;. . .&lt;/font&gt;" style="text;html=1;align=center;verticalAlign=middle;resizable=0;points=[];autosize=1;strokeColor=none;fillColor=none;rotation=90;" parent="1" vertex="1">
                    <mxGeometry x="143.5" y="386" width="60" height="48" as="geometry"/>
                </mxCell>
                <mxCell id="tvJJy_Gzf4VP1QdcMVoE-36" style="edgeStyle=orthogonalEdgeStyle;rounded=0;orthogonalLoop=1;jettySize=auto;html=1;entryX=0;entryY=0.5;entryDx=0;entryDy=0;" parent="1" source="tvJJy_Gzf4VP1QdcMVoE-39" target="tvJJy_Gzf4VP1QdcMVoE-41" edge="1">
                    <mxGeometry relative="1" as="geometry">
                        <mxPoint x="442" y="591" as="targetPoint"/>
                    </mxGeometry>
                </mxCell>
                <mxCell id="tvJJy_Gzf4VP1QdcMVoE-37" style="edgeStyle=orthogonalEdgeStyle;rounded=0;orthogonalLoop=1;jettySize=auto;html=1;entryX=0;entryY=0.5;entryDx=0;entryDy=0;" parent="1" source="tvJJy_Gzf4VP1QdcMVoE-39" target="tvJJy_Gzf4VP1QdcMVoE-42" edge="1">
                    <mxGeometry relative="1" as="geometry"/>
                </mxCell>
                <mxCell id="tvJJy_Gzf4VP1QdcMVoE-38" style="edgeStyle=orthogonalEdgeStyle;rounded=0;orthogonalLoop=1;jettySize=auto;html=1;entryX=0;entryY=0.5;entryDx=0;entryDy=0;" parent="1" source="tvJJy_Gzf4VP1QdcMVoE-39" target="tvJJy_Gzf4VP1QdcMVoE-40" edge="1">
                    <mxGeometry relative="1" as="geometry"/>
                </mxCell>
                <mxCell id="tvJJy_Gzf4VP1QdcMVoE-55" style="edgeStyle=orthogonalEdgeStyle;rounded=0;orthogonalLoop=1;jettySize=auto;html=1;entryX=1.05;entryY=0.708;entryDx=0;entryDy=0;entryPerimeter=0;startArrow=classic;startFill=1;endArrow=none;endFill=0;" parent="1" source="tvJJy_Gzf4VP1QdcMVoE-39" edge="1">
                    <mxGeometry relative="1" as="geometry">
                        <mxPoint x="169.01599999999985" y="434" as="targetPoint"/>
                        <Array as="points">
                            <mxPoint x="169" y="591"/>
                        </Array>
                    </mxGeometry>
                </mxCell>
                <mxCell id="tvJJy_Gzf4VP1QdcMVoE-39" value="Bubblesort measure" style="rounded=1;whiteSpace=wrap;html=1;" parent="1" vertex="1">
                    <mxGeometry x="187" y="563" width="120" height="60" as="geometry"/>
                </mxCell>
                <mxCell id="tvJJy_Gzf4VP1QdcMVoE-40" value="random case" style="rounded=1;whiteSpace=wrap;html=1;" parent="1" vertex="1">
                    <mxGeometry x="381" y="456" width="120" height="60" as="geometry"/>
                </mxCell>
                <mxCell id="tvJJy_Gzf4VP1QdcMVoE-41" value="best case" style="rounded=1;whiteSpace=wrap;html=1;" parent="1" vertex="1">
                    <mxGeometry x="381" y="563" width="120" height="60" as="geometry"/>
                </mxCell>
                <mxCell id="tvJJy_Gzf4VP1QdcMVoE-155" value="" style="edgeStyle=orthogonalEdgeStyle;rounded=0;orthogonalLoop=1;jettySize=auto;html=1;" parent="1" source="tvJJy_Gzf4VP1QdcMVoE-42" target="tvJJy_Gzf4VP1QdcMVoE-120" edge="1">
                    <mxGeometry relative="1" as="geometry"/>
                </mxCell>
                <mxCell id="tvJJy_Gzf4VP1QdcMVoE-42" value="worst case" style="rounded=1;whiteSpace=wrap;html=1;" parent="1" vertex="1">
                    <mxGeometry x="381" y="675" width="120" height="60" as="geometry"/>
                </mxCell>
                <mxCell id="tvJJy_Gzf4VP1QdcMVoE-53" style="edgeStyle=orthogonalEdgeStyle;rounded=0;orthogonalLoop=1;jettySize=auto;html=1;entryX=0;entryY=0.5;entryDx=0;entryDy=0;" parent="1" source="tvJJy_Gzf4VP1QdcMVoE-47" target="tvJJy_Gzf4VP1QdcMVoE-52" edge="1">
                    <mxGeometry relative="1" as="geometry"/>
                </mxCell>
                <mxCell id="tvJJy_Gzf4VP1QdcMVoE-47" value="call Quicksort with random input" style="rounded=1;whiteSpace=wrap;html=1;" parent="1" vertex="1">
                    <mxGeometry x="532" y="106" width="120" height="60" as="geometry"/>
                </mxCell>
                <mxCell id="tvJJy_Gzf4VP1QdcMVoE-85" style="edgeStyle=orthogonalEdgeStyle;rounded=0;orthogonalLoop=1;jettySize=auto;html=1;" parent="1" source="tvJJy_Gzf4VP1QdcMVoE-50" edge="1">
                    <mxGeometry relative="1" as="geometry">
                        <mxPoint x="600.5" y="104.73076923076923" as="targetPoint"/>
                    </mxGeometry>
                </mxCell>
                <mxCell id="tvJJy_Gzf4VP1QdcMVoE-50" value="i + 1" style="text;html=1;align=center;verticalAlign=middle;resizable=0;points=[];autosize=1;strokeColor=none;fillColor=none;" parent="1" vertex="1">
                    <mxGeometry x="580" y="61" width="41" height="26" as="geometry"/>
                </mxCell>
                <mxCell id="tvJJy_Gzf4VP1QdcMVoE-54" style="edgeStyle=orthogonalEdgeStyle;rounded=0;orthogonalLoop=1;jettySize=auto;html=1;entryX=1;entryY=0.5;entryDx=0;entryDy=0;entryPerimeter=0;endArrow=none;endFill=0;" parent="1" source="tvJJy_Gzf4VP1QdcMVoE-52" target="tvJJy_Gzf4VP1QdcMVoE-50" edge="1">
                    <mxGeometry relative="1" as="geometry">
                        <mxPoint x="735" y="27" as="targetPoint"/>
                        <Array as="points">
                            <mxPoint x="727" y="74"/>
                        </Array>
                    </mxGeometry>
                </mxCell>
                <mxCell id="tvJJy_Gzf4VP1QdcMVoE-52" value="if i &amp;lt; 400" style="rhombus;whiteSpace=wrap;html=1;" parent="1" vertex="1">
                    <mxGeometry x="687" y="96" width="80" height="80" as="geometry"/>
                </mxCell>
                <mxCell id="tvJJy_Gzf4VP1QdcMVoE-58" value="i = 0" style="text;html=1;align=center;verticalAlign=middle;resizable=0;points=[];autosize=1;strokeColor=none;fillColor=none;" parent="1" vertex="1">
                    <mxGeometry x="499" y="89" width="41" height="26" as="geometry"/>
                </mxCell>
                <mxCell id="tvJJy_Gzf4VP1QdcMVoE-86" style="edgeStyle=orthogonalEdgeStyle;rounded=0;orthogonalLoop=1;jettySize=auto;html=1;exitX=1;exitY=0.5;exitDx=0;exitDy=0;" parent="1" source="tvJJy_Gzf4VP1QdcMVoE-8" target="tvJJy_Gzf4VP1QdcMVoE-88" edge="1">
                    <mxGeometry relative="1" as="geometry">
                        <mxPoint x="505" y="246" as="sourcePoint"/>
                    </mxGeometry>
                </mxCell>
                <mxCell id="tvJJy_Gzf4VP1QdcMVoE-87" style="edgeStyle=orthogonalEdgeStyle;rounded=0;orthogonalLoop=1;jettySize=auto;html=1;entryX=0;entryY=0.5;entryDx=0;entryDy=0;" parent="1" source="tvJJy_Gzf4VP1QdcMVoE-88" target="tvJJy_Gzf4VP1QdcMVoE-92" edge="1">
                    <mxGeometry relative="1" as="geometry"/>
                </mxCell>
                <mxCell id="tvJJy_Gzf4VP1QdcMVoE-88" value="call Quicksort with bestinput" style="rounded=1;whiteSpace=wrap;html=1;" parent="1" vertex="1">
                    <mxGeometry x="532" y="216" width="120" height="60" as="geometry"/>
                </mxCell>
                <mxCell id="tvJJy_Gzf4VP1QdcMVoE-89" style="edgeStyle=orthogonalEdgeStyle;rounded=0;orthogonalLoop=1;jettySize=auto;html=1;" parent="1" source="tvJJy_Gzf4VP1QdcMVoE-90" edge="1">
                    <mxGeometry relative="1" as="geometry">
                        <mxPoint x="600.5" y="214.73076923076923" as="targetPoint"/>
                    </mxGeometry>
                </mxCell>
                <mxCell id="tvJJy_Gzf4VP1QdcMVoE-90" value="i + 1" style="text;html=1;align=center;verticalAlign=middle;resizable=0;points=[];autosize=1;strokeColor=none;fillColor=none;" parent="1" vertex="1">
                    <mxGeometry x="580" y="171" width="41" height="26" as="geometry"/>
                </mxCell>
                <mxCell id="tvJJy_Gzf4VP1QdcMVoE-91" style="edgeStyle=orthogonalEdgeStyle;rounded=0;orthogonalLoop=1;jettySize=auto;html=1;entryX=1;entryY=0.5;entryDx=0;entryDy=0;entryPerimeter=0;endArrow=none;endFill=0;" parent="1" source="tvJJy_Gzf4VP1QdcMVoE-92" target="tvJJy_Gzf4VP1QdcMVoE-90" edge="1">
                    <mxGeometry relative="1" as="geometry">
                        <mxPoint x="735" y="137" as="targetPoint"/>
                        <Array as="points">
                            <mxPoint x="727" y="184"/>
                        </Array>
                    </mxGeometry>
                </mxCell>
                <mxCell id="tvJJy_Gzf4VP1QdcMVoE-128" style="edgeStyle=orthogonalEdgeStyle;rounded=0;orthogonalLoop=1;jettySize=auto;html=1;endArrow=none;endFill=0;" parent="1" source="tvJJy_Gzf4VP1QdcMVoE-92" edge="1">
                    <mxGeometry relative="1" as="geometry">
                        <mxPoint x="775.5862068965516" y="135.86206896551732" as="targetPoint"/>
                        <Array as="points">
                            <mxPoint x="775" y="246"/>
                            <mxPoint x="775" y="136"/>
                        </Array>
                    </mxGeometry>
                </mxCell>
                <mxCell id="tvJJy_Gzf4VP1QdcMVoE-92" value="if i &amp;lt; 400" style="rhombus;whiteSpace=wrap;html=1;" parent="1" vertex="1">
                    <mxGeometry x="687" y="206" width="80" height="80" as="geometry"/>
                </mxCell>
                <mxCell id="tvJJy_Gzf4VP1QdcMVoE-93" value="i = 0" style="text;html=1;align=center;verticalAlign=middle;resizable=0;points=[];autosize=1;strokeColor=none;fillColor=none;" parent="1" vertex="1">
                    <mxGeometry x="499" y="199" width="41" height="26" as="geometry"/>
                </mxCell>
                <mxCell id="tvJJy_Gzf4VP1QdcMVoE-94" style="edgeStyle=orthogonalEdgeStyle;rounded=0;orthogonalLoop=1;jettySize=auto;html=1;exitX=1;exitY=0.5;exitDx=0;exitDy=0;" parent="1" source="tvJJy_Gzf4VP1QdcMVoE-9" target="tvJJy_Gzf4VP1QdcMVoE-96" edge="1">
                    <mxGeometry relative="1" as="geometry">
                        <mxPoint x="505" y="361" as="sourcePoint"/>
                    </mxGeometry>
                </mxCell>
                <mxCell id="tvJJy_Gzf4VP1QdcMVoE-95" style="edgeStyle=orthogonalEdgeStyle;rounded=0;orthogonalLoop=1;jettySize=auto;html=1;entryX=0;entryY=0.5;entryDx=0;entryDy=0;" parent="1" source="tvJJy_Gzf4VP1QdcMVoE-96" target="tvJJy_Gzf4VP1QdcMVoE-100" edge="1">
                    <mxGeometry relative="1" as="geometry"/>
                </mxCell>
                <mxCell id="tvJJy_Gzf4VP1QdcMVoE-96" value="call Quicksort with worst input" style="rounded=1;whiteSpace=wrap;html=1;" parent="1" vertex="1">
                    <mxGeometry x="532" y="331" width="120" height="60" as="geometry"/>
                </mxCell>
                <mxCell id="tvJJy_Gzf4VP1QdcMVoE-97" style="edgeStyle=orthogonalEdgeStyle;rounded=0;orthogonalLoop=1;jettySize=auto;html=1;" parent="1" source="tvJJy_Gzf4VP1QdcMVoE-98" edge="1">
                    <mxGeometry relative="1" as="geometry">
                        <mxPoint x="600.5" y="329.7307692307692" as="targetPoint"/>
                    </mxGeometry>
                </mxCell>
                <mxCell id="tvJJy_Gzf4VP1QdcMVoE-98" value="i + 1" style="text;html=1;align=center;verticalAlign=middle;resizable=0;points=[];autosize=1;strokeColor=none;fillColor=none;" parent="1" vertex="1">
                    <mxGeometry x="580" y="286" width="41" height="26" as="geometry"/>
                </mxCell>
                <mxCell id="tvJJy_Gzf4VP1QdcMVoE-99" style="edgeStyle=orthogonalEdgeStyle;rounded=0;orthogonalLoop=1;jettySize=auto;html=1;entryX=1;entryY=0.5;entryDx=0;entryDy=0;entryPerimeter=0;endArrow=none;endFill=0;" parent="1" source="tvJJy_Gzf4VP1QdcMVoE-100" target="tvJJy_Gzf4VP1QdcMVoE-98" edge="1">
                    <mxGeometry relative="1" as="geometry">
                        <mxPoint x="735" y="252" as="targetPoint"/>
                        <Array as="points">
                            <mxPoint x="727" y="299"/>
                        </Array>
                    </mxGeometry>
                </mxCell>
                <mxCell id="tvJJy_Gzf4VP1QdcMVoE-160" style="edgeStyle=orthogonalEdgeStyle;rounded=0;orthogonalLoop=1;jettySize=auto;html=1;entryX=0.459;entryY=-0.127;entryDx=0;entryDy=0;entryPerimeter=0;" parent="1" source="tvJJy_Gzf4VP1QdcMVoE-100" target="tvJJy_Gzf4VP1QdcMVoE-162" edge="1">
                    <mxGeometry relative="1" as="geometry">
                        <mxPoint x="169" y="78.17000000000007" as="targetPoint"/>
                        <Array as="points">
                            <mxPoint x="807" y="361"/>
                            <mxPoint x="807" y="13"/>
                            <mxPoint x="170" y="13"/>
                        </Array>
                    </mxGeometry>
                </mxCell>
                <mxCell id="tvJJy_Gzf4VP1QdcMVoE-100" value="if i &amp;lt; 400" style="rhombus;whiteSpace=wrap;html=1;" parent="1" vertex="1">
                    <mxGeometry x="687" y="321" width="80" height="80" as="geometry"/>
                </mxCell>
                <mxCell id="tvJJy_Gzf4VP1QdcMVoE-101" value="i = 0" style="text;html=1;align=center;verticalAlign=middle;resizable=0;points=[];autosize=1;strokeColor=none;fillColor=none;" parent="1" vertex="1">
                    <mxGeometry x="499" y="314" width="41" height="26" as="geometry"/>
                </mxCell>
                <mxCell id="tvJJy_Gzf4VP1QdcMVoE-102" style="edgeStyle=orthogonalEdgeStyle;rounded=0;orthogonalLoop=1;jettySize=auto;html=1;" parent="1" target="tvJJy_Gzf4VP1QdcMVoE-104" edge="1">
                    <mxGeometry relative="1" as="geometry">
                        <mxPoint x="505" y="486" as="sourcePoint"/>
                    </mxGeometry>
                </mxCell>
                <mxCell id="tvJJy_Gzf4VP1QdcMVoE-103" style="edgeStyle=orthogonalEdgeStyle;rounded=0;orthogonalLoop=1;jettySize=auto;html=1;entryX=0;entryY=0.5;entryDx=0;entryDy=0;" parent="1" source="tvJJy_Gzf4VP1QdcMVoE-104" target="tvJJy_Gzf4VP1QdcMVoE-108" edge="1">
                    <mxGeometry relative="1" as="geometry"/>
                </mxCell>
                <mxCell id="tvJJy_Gzf4VP1QdcMVoE-104" value="call Bubble sort with randominput" style="rounded=1;whiteSpace=wrap;html=1;" parent="1" vertex="1">
                    <mxGeometry x="532" y="456" width="120" height="60" as="geometry"/>
                </mxCell>
                <mxCell id="tvJJy_Gzf4VP1QdcMVoE-105" style="edgeStyle=orthogonalEdgeStyle;rounded=0;orthogonalLoop=1;jettySize=auto;html=1;" parent="1" source="tvJJy_Gzf4VP1QdcMVoE-106" edge="1">
                    <mxGeometry relative="1" as="geometry">
                        <mxPoint x="600.5" y="454.7307692307692" as="targetPoint"/>
                    </mxGeometry>
                </mxCell>
                <mxCell id="tvJJy_Gzf4VP1QdcMVoE-106" value="i + 1" style="text;html=1;align=center;verticalAlign=middle;resizable=0;points=[];autosize=1;strokeColor=none;fillColor=none;" parent="1" vertex="1">
                    <mxGeometry x="580" y="411" width="41" height="26" as="geometry"/>
                </mxCell>
                <mxCell id="tvJJy_Gzf4VP1QdcMVoE-107" style="edgeStyle=orthogonalEdgeStyle;rounded=0;orthogonalLoop=1;jettySize=auto;html=1;entryX=1;entryY=0.5;entryDx=0;entryDy=0;entryPerimeter=0;endArrow=none;endFill=0;" parent="1" source="tvJJy_Gzf4VP1QdcMVoE-108" target="tvJJy_Gzf4VP1QdcMVoE-106" edge="1">
                    <mxGeometry relative="1" as="geometry">
                        <mxPoint x="735" y="377" as="targetPoint"/>
                        <Array as="points">
                            <mxPoint x="727" y="424"/>
                        </Array>
                    </mxGeometry>
                </mxCell>
                <mxCell id="tvJJy_Gzf4VP1QdcMVoE-167" style="edgeStyle=orthogonalEdgeStyle;rounded=0;orthogonalLoop=1;jettySize=auto;html=1;entryX=0.43;entryY=0;entryDx=0;entryDy=0;entryPerimeter=0;" parent="1" source="tvJJy_Gzf4VP1QdcMVoE-108" target="tvJJy_Gzf4VP1QdcMVoE-35" edge="1">
                    <mxGeometry relative="1" as="geometry">
                        <Array as="points">
                            <mxPoint x="776" y="486"/>
                            <mxPoint x="776" y="406"/>
                            <mxPoint x="202" y="406"/>
                        </Array>
                    </mxGeometry>
                </mxCell>
                <mxCell id="tvJJy_Gzf4VP1QdcMVoE-108" value="if i &amp;lt; 400" style="rhombus;whiteSpace=wrap;html=1;" parent="1" vertex="1">
                    <mxGeometry x="687" y="446" width="80" height="80" as="geometry"/>
                </mxCell>
                <mxCell id="tvJJy_Gzf4VP1QdcMVoE-109" value="i = 0" style="text;html=1;align=center;verticalAlign=middle;resizable=0;points=[];autosize=1;strokeColor=none;fillColor=none;" parent="1" vertex="1">
                    <mxGeometry x="499" y="439" width="41" height="26" as="geometry"/>
                </mxCell>
                <mxCell id="tvJJy_Gzf4VP1QdcMVoE-110" style="edgeStyle=orthogonalEdgeStyle;rounded=0;orthogonalLoop=1;jettySize=auto;html=1;exitX=0.992;exitY=0.5;exitDx=0;exitDy=0;exitPerimeter=0;" parent="1" source="tvJJy_Gzf4VP1QdcMVoE-41" target="tvJJy_Gzf4VP1QdcMVoE-112" edge="1">
                    <mxGeometry relative="1" as="geometry">
                        <mxPoint x="503" y="593" as="sourcePoint"/>
                    </mxGeometry>
                </mxCell>
                <mxCell id="tvJJy_Gzf4VP1QdcMVoE-111" style="edgeStyle=orthogonalEdgeStyle;rounded=0;orthogonalLoop=1;jettySize=auto;html=1;entryX=0;entryY=0.5;entryDx=0;entryDy=0;" parent="1" source="tvJJy_Gzf4VP1QdcMVoE-112" target="tvJJy_Gzf4VP1QdcMVoE-116" edge="1">
                    <mxGeometry relative="1" as="geometry"/>
                </mxCell>
                <mxCell id="tvJJy_Gzf4VP1QdcMVoE-112" value="&lt;div&gt;call Bubble sort with best input&lt;br&gt;&lt;/div&gt;" style="rounded=1;whiteSpace=wrap;html=1;" parent="1" vertex="1">
                    <mxGeometry x="530" y="563" width="120" height="60" as="geometry"/>
                </mxCell>
                <mxCell id="tvJJy_Gzf4VP1QdcMVoE-113" style="edgeStyle=orthogonalEdgeStyle;rounded=0;orthogonalLoop=1;jettySize=auto;html=1;" parent="1" source="tvJJy_Gzf4VP1QdcMVoE-114" edge="1">
                    <mxGeometry relative="1" as="geometry">
                        <mxPoint x="598.5" y="561.7307692307693" as="targetPoint"/>
                    </mxGeometry>
                </mxCell>
                <mxCell id="tvJJy_Gzf4VP1QdcMVoE-114" value="i + 1" style="text;html=1;align=center;verticalAlign=middle;resizable=0;points=[];autosize=1;strokeColor=none;fillColor=none;" parent="1" vertex="1">
                    <mxGeometry x="578" y="518" width="41" height="26" as="geometry"/>
                </mxCell>
                <mxCell id="tvJJy_Gzf4VP1QdcMVoE-115" style="edgeStyle=orthogonalEdgeStyle;rounded=0;orthogonalLoop=1;jettySize=auto;html=1;entryX=1;entryY=0.5;entryDx=0;entryDy=0;entryPerimeter=0;endArrow=none;endFill=0;" parent="1" source="tvJJy_Gzf4VP1QdcMVoE-116" target="tvJJy_Gzf4VP1QdcMVoE-114" edge="1">
                    <mxGeometry relative="1" as="geometry">
                        <mxPoint x="733" y="484" as="targetPoint"/>
                        <Array as="points">
                            <mxPoint x="725" y="531"/>
                        </Array>
                    </mxGeometry>
                </mxCell>
                <mxCell id="tvJJy_Gzf4VP1QdcMVoE-165" style="edgeStyle=orthogonalEdgeStyle;rounded=0;orthogonalLoop=1;jettySize=auto;html=1;" parent="1" source="tvJJy_Gzf4VP1QdcMVoE-116" edge="1">
                    <mxGeometry relative="1" as="geometry">
                        <mxPoint x="775.9767441860465" y="485.93023255813955" as="targetPoint"/>
                        <Array as="points">
                            <mxPoint x="776" y="593"/>
                        </Array>
                    </mxGeometry>
                </mxCell>
                <mxCell id="tvJJy_Gzf4VP1QdcMVoE-116" value="if i &amp;lt; 400" style="rhombus;whiteSpace=wrap;html=1;" parent="1" vertex="1">
                    <mxGeometry x="685" y="553" width="80" height="80" as="geometry"/>
                </mxCell>
                <mxCell id="tvJJy_Gzf4VP1QdcMVoE-117" value="i = 0" style="text;html=1;align=center;verticalAlign=middle;resizable=0;points=[];autosize=1;strokeColor=none;fillColor=none;" parent="1" vertex="1">
                    <mxGeometry x="499" y="548" width="41" height="26" as="geometry"/>
                </mxCell>
                <mxCell id="tvJJy_Gzf4VP1QdcMVoE-118" style="edgeStyle=orthogonalEdgeStyle;rounded=0;orthogonalLoop=1;jettySize=auto;html=1;" parent="1" target="tvJJy_Gzf4VP1QdcMVoE-120" edge="1">
                    <mxGeometry relative="1" as="geometry">
                        <mxPoint x="503" y="705" as="sourcePoint"/>
                    </mxGeometry>
                </mxCell>
                <mxCell id="tvJJy_Gzf4VP1QdcMVoE-119" style="edgeStyle=orthogonalEdgeStyle;rounded=0;orthogonalLoop=1;jettySize=auto;html=1;entryX=0;entryY=0.5;entryDx=0;entryDy=0;" parent="1" source="tvJJy_Gzf4VP1QdcMVoE-120" target="tvJJy_Gzf4VP1QdcMVoE-124" edge="1">
                    <mxGeometry relative="1" as="geometry"/>
                </mxCell>
                <mxCell id="tvJJy_Gzf4VP1QdcMVoE-120" value="call Bubble sort with worst input" style="rounded=1;whiteSpace=wrap;html=1;" parent="1" vertex="1">
                    <mxGeometry x="530" y="675" width="120" height="60" as="geometry"/>
                </mxCell>
                <mxCell id="tvJJy_Gzf4VP1QdcMVoE-121" style="edgeStyle=orthogonalEdgeStyle;rounded=0;orthogonalLoop=1;jettySize=auto;html=1;" parent="1" source="tvJJy_Gzf4VP1QdcMVoE-122" edge="1">
                    <mxGeometry relative="1" as="geometry">
                        <mxPoint x="598.5" y="673.7307692307693" as="targetPoint"/>
                    </mxGeometry>
                </mxCell>
                <mxCell id="tvJJy_Gzf4VP1QdcMVoE-122" value="i + 1" style="text;html=1;align=center;verticalAlign=middle;resizable=0;points=[];autosize=1;strokeColor=none;fillColor=none;" parent="1" vertex="1">
                    <mxGeometry x="578" y="630" width="41" height="26" as="geometry"/>
                </mxCell>
                <mxCell id="tvJJy_Gzf4VP1QdcMVoE-123" style="edgeStyle=orthogonalEdgeStyle;rounded=0;orthogonalLoop=1;jettySize=auto;html=1;entryX=1;entryY=0.5;entryDx=0;entryDy=0;entryPerimeter=0;endArrow=none;endFill=0;" parent="1" source="tvJJy_Gzf4VP1QdcMVoE-124" target="tvJJy_Gzf4VP1QdcMVoE-122" edge="1">
                    <mxGeometry relative="1" as="geometry">
                        <mxPoint x="733" y="596" as="targetPoint"/>
                        <Array as="points">
                            <mxPoint x="725" y="643"/>
                        </Array>
                    </mxGeometry>
                </mxCell>
                <mxCell id="tvJJy_Gzf4VP1QdcMVoE-169" style="edgeStyle=orthogonalEdgeStyle;rounded=0;orthogonalLoop=1;jettySize=auto;html=1;" parent="1" source="tvJJy_Gzf4VP1QdcMVoE-124" edge="1">
                    <mxGeometry relative="1" as="geometry">
                        <mxPoint x="807" y="361" as="targetPoint"/>
                    </mxGeometry>
                </mxCell>
                <mxCell id="tvJJy_Gzf4VP1QdcMVoE-124" value="if i &amp;lt; 400" style="rhombus;whiteSpace=wrap;html=1;" parent="1" vertex="1">
                    <mxGeometry x="685" y="665" width="80" height="80" as="geometry"/>
                </mxCell>
                <mxCell id="tvJJy_Gzf4VP1QdcMVoE-125" value="i = 0" style="text;html=1;align=center;verticalAlign=middle;resizable=0;points=[];autosize=1;strokeColor=none;fillColor=none;" parent="1" vertex="1">
                    <mxGeometry x="499" y="658" width="41" height="26" as="geometry"/>
                </mxCell>
                <mxCell id="tvJJy_Gzf4VP1QdcMVoE-131" value="else" style="edgeLabel;html=1;align=center;verticalAlign=middle;resizable=0;points=[];" parent="1" vertex="1" connectable="0">
                    <mxGeometry x="786.0344827586205" y="118.1724137931036" as="geometry">
                        <mxPoint x="-12" y="110" as="offset"/>
                    </mxGeometry>
                </mxCell>
                <mxCell id="tvJJy_Gzf4VP1QdcMVoE-132" value="else" style="edgeLabel;html=1;align=center;verticalAlign=middle;resizable=0;points=[];" parent="1" vertex="1" connectable="0">
                    <mxGeometry x="823.0044827586205" y="118.17241379310359" as="geometry">
                        <mxPoint x="-46" y="429" as="offset"/>
                    </mxGeometry>
                </mxCell>
                <mxCell id="tvJJy_Gzf4VP1QdcMVoE-133" value="else" style="edgeLabel;html=1;align=center;verticalAlign=middle;resizable=0;points=[];" parent="1" vertex="1" connectable="0">
                    <mxGeometry x="809.0044827586205" y="153.0024137931036" as="geometry">
                        <mxPoint x="-32" y="301" as="offset"/>
                    </mxGeometry>
                </mxCell>
                <mxCell id="tvJJy_Gzf4VP1QdcMVoE-134" value="else" style="edgeLabel;html=1;align=center;verticalAlign=middle;resizable=0;points=[];" parent="1" vertex="1" connectable="0">
                    <mxGeometry x="806.0344827586205" y="331.00241379310364" as="geometry">
                        <mxPoint x="-1" y="1" as="offset"/>
                    </mxGeometry>
                </mxCell>
                <mxCell id="tvJJy_Gzf4VP1QdcMVoE-139" value="else" style="edgeLabel;html=1;align=center;verticalAlign=middle;resizable=0;points=[];" parent="1" vertex="1" connectable="0">
                    <mxGeometry x="858.0044827586205" y="176.00241379310359" as="geometry">
                        <mxPoint x="-50" y="507" as="offset"/>
                    </mxGeometry>
                </mxCell>
                <mxCell id="tvJJy_Gzf4VP1QdcMVoE-161" style="edgeStyle=orthogonalEdgeStyle;rounded=0;orthogonalLoop=1;jettySize=auto;html=1;" parent="1" edge="1">
                    <mxGeometry relative="1" as="geometry">
                        <mxPoint x="169" y="245.48275862068976" as="targetPoint"/>
                        <mxPoint x="169" y="138.17000000000007" as="sourcePoint"/>
                    </mxGeometry>
                </mxCell>
                <mxCell id="tvJJy_Gzf4VP1QdcMVoE-144" value="Makefile" style="text;html=1;align=center;verticalAlign=middle;resizable=0;points=[];autosize=1;strokeColor=none;fillColor=none;" parent="1" vertex="1">
                    <mxGeometry x="15" y="194" width="63" height="26" as="geometry"/>
                </mxCell>
                <mxCell id="tvJJy_Gzf4VP1QdcMVoE-145" value="Makefile" style="text;html=1;align=center;verticalAlign=middle;resizable=0;points=[];autosize=1;strokeColor=none;fillColor=none;" parent="1" vertex="1">
                    <mxGeometry x="181" y="194" width="63" height="26" as="geometry"/>
                </mxCell>
                <mxCell id="tvJJy_Gzf4VP1QdcMVoE-146" value="Makefile" style="text;html=1;align=center;verticalAlign=middle;resizable=0;points=[];autosize=1;strokeColor=none;fillColor=none;" parent="1" vertex="1">
                    <mxGeometry x="379" y="84" width="63" height="26" as="geometry"/>
                </mxCell>
                <mxCell id="tvJJy_Gzf4VP1QdcMVoE-147" value="Makefile" style="text;html=1;align=center;verticalAlign=middle;resizable=0;points=[];autosize=1;strokeColor=none;fillColor=none;" parent="1" vertex="1">
                    <mxGeometry x="381" y="194" width="63" height="26" as="geometry"/>
                </mxCell>
                <mxCell id="tvJJy_Gzf4VP1QdcMVoE-148" value="Makefile" style="text;html=1;align=center;verticalAlign=middle;resizable=0;points=[];autosize=1;strokeColor=none;fillColor=none;" parent="1" vertex="1">
                    <mxGeometry x="379" y="308" width="63" height="26" as="geometry"/>
                </mxCell>
                <mxCell id="tvJJy_Gzf4VP1QdcMVoE-149" value="Makefile" style="text;html=1;align=center;verticalAlign=middle;resizable=0;points=[];autosize=1;strokeColor=none;fillColor=none;" parent="1" vertex="1">
                    <mxGeometry x="381" y="430" width="63" height="26" as="geometry"/>
                </mxCell>
                <mxCell id="tvJJy_Gzf4VP1QdcMVoE-150" value="Makefile" style="text;html=1;align=center;verticalAlign=middle;resizable=0;points=[];autosize=1;strokeColor=none;fillColor=none;" parent="1" vertex="1">
                    <mxGeometry x="379" y="541" width="63" height="26" as="geometry"/>
                </mxCell>
                <mxCell id="tvJJy_Gzf4VP1QdcMVoE-151" value="Makefile" style="text;html=1;align=center;verticalAlign=middle;resizable=0;points=[];autosize=1;strokeColor=none;fillColor=none;" parent="1" vertex="1">
                    <mxGeometry x="181" y="541" width="63" height="26" as="geometry"/>
                </mxCell>
                <mxCell id="tvJJy_Gzf4VP1QdcMVoE-152" value="Makefile" style="text;html=1;align=center;verticalAlign=middle;resizable=0;points=[];autosize=1;strokeColor=none;fillColor=none;" parent="1" vertex="1">
                    <mxGeometry x="379" y="656" width="63" height="26" as="geometry"/>
                </mxCell>
                <mxCell id="tvJJy_Gzf4VP1QdcMVoE-153" value="main.c" style="text;html=1;align=center;verticalAlign=middle;resizable=0;points=[];autosize=1;strokeColor=none;fillColor=none;" parent="1" vertex="1">
                    <mxGeometry x="538" y="44" width="55" height="26" as="geometry"/>
                </mxCell>
                <mxCell id="tvJJy_Gzf4VP1QdcMVoE-157" value="" style="edgeStyle=orthogonalEdgeStyle;rounded=0;orthogonalLoop=1;jettySize=auto;html=1;endArrow=none;endFill=0;" parent="1" source="tvJJy_Gzf4VP1QdcMVoE-52" target="tvJJy_Gzf4VP1QdcMVoE-156" edge="1">
                    <mxGeometry relative="1" as="geometry">
                        <mxPoint x="345" y="136" as="targetPoint"/>
                        <mxPoint x="767" y="136" as="sourcePoint"/>
                        <Array as="points">
                            <mxPoint x="775" y="136"/>
                            <mxPoint x="775" y="32"/>
                        </Array>
                    </mxGeometry>
                </mxCell>
                <mxCell id="tvJJy_Gzf4VP1QdcMVoE-158" value="else" style="edgeLabel;html=1;align=center;verticalAlign=middle;resizable=0;points=[];" parent="tvJJy_Gzf4VP1QdcMVoE-157" vertex="1" connectable="0">
                    <mxGeometry x="-0.9235" y="-1" relative="1" as="geometry">
                        <mxPoint as="offset"/>
                    </mxGeometry>
                </mxCell>
                <mxCell id="tvJJy_Gzf4VP1QdcMVoE-159" style="edgeStyle=orthogonalEdgeStyle;rounded=0;orthogonalLoop=1;jettySize=auto;html=1;" parent="1" source="tvJJy_Gzf4VP1QdcMVoE-156" edge="1">
                    <mxGeometry relative="1" as="geometry">
                        <mxPoint x="344" y="137.9310344827586" as="targetPoint"/>
                    </mxGeometry>
                </mxCell>
                <mxCell id="tvJJy_Gzf4VP1QdcMVoE-156" value="Next input case" style="text;html=1;align=center;verticalAlign=middle;resizable=0;points=[];autosize=1;strokeColor=none;fillColor=none;" parent="1" vertex="1">
                    <mxGeometry x="293" y="52.17" width="102" height="26" as="geometry"/>
                </mxCell>
                <mxCell id="tvJJy_Gzf4VP1QdcMVoE-162" value="next algorithm" style="text;html=1;align=center;verticalAlign=middle;resizable=0;points=[];autosize=1;strokeColor=none;fillColor=none;" parent="1" vertex="1">
                    <mxGeometry x="126" y="112.17" width="95" height="26" as="geometry"/>
                </mxCell>
                <mxCell id="59" value="" style="group" vertex="1" connectable="0" parent="1">
                    <mxGeometry x="91" y="738" width="229" height="274" as="geometry"/>
                </mxCell>
                <mxCell id="60" value="" style="rounded=1;whiteSpace=wrap;html=1;dashed=1;" vertex="1" parent="59">
                    <mxGeometry y="15.189765458422174" width="229" height="258.8102345415778" as="geometry"/>
                </mxCell>
                <mxCell id="61" value="Makefile: measure" style="text;html=1;align=center;verticalAlign=middle;resizable=0;points=[];autosize=1;strokeColor=none;fillColor=none;" vertex="1" parent="59">
                    <mxGeometry x="-0.0015870307167240583" y="-6" width="116" height="26" as="geometry"/>
                </mxCell>
                <mxCell id="62" style="edgeStyle=elbowEdgeStyle;html=1;entryX=0.5;entryY=0;entryDx=0;entryDy=0;" edge="1" parent="1" source="63" target="65">
                    <mxGeometry relative="1" as="geometry">
                        <Array as="points">
                            <mxPoint x="222" y="715"/>
                        </Array>
                    </mxGeometry>
                </mxCell>
                <mxCell id="63" value="start" style="ellipse;whiteSpace=wrap;html=1;" vertex="1" parent="1">
                    <mxGeometry x="175" y="662" width="97" height="50" as="geometry"/>
                </mxCell>
                <mxCell id="64" style="edgeStyle=elbowEdgeStyle;html=1;entryX=0.5;entryY=0;entryDx=0;entryDy=0;" edge="1" parent="1" source="65" target="68">
                    <mxGeometry relative="1" as="geometry"/>
                </mxCell>
                <mxCell id="65" value="call main.c with algorithm" style="rounded=1;whiteSpace=wrap;html=1;" vertex="1" parent="1">
                    <mxGeometry x="145" y="761.5" width="153" height="60" as="geometry"/>
                </mxCell>
                <mxCell id="66" style="edgeStyle=elbowEdgeStyle;html=1;entryX=0;entryY=0.5;entryDx=0;entryDy=0;startArrow=none;exitX=0.521;exitY=-0.108;exitDx=0;exitDy=0;exitPerimeter=0;" edge="1" parent="1" source="70" target="65">
                    <mxGeometry relative="1" as="geometry">
                        <Array as="points">
                            <mxPoint x="112" y="792"/>
                        </Array>
                    </mxGeometry>
                </mxCell>
                <mxCell id="67" style="edgeStyle=elbowEdgeStyle;html=1;startArrow=none;entryX=0.5;entryY=0;entryDx=0;entryDy=0;" edge="1" parent="1" source="72" target="73">
                    <mxGeometry relative="1" as="geometry">
                        <mxPoint x="221.5" y="1092.4933547973633" as="targetPoint"/>
                    </mxGeometry>
                </mxCell>
                <mxCell id="68" value="if more sizes left" style="rhombus;whiteSpace=wrap;html=1;" vertex="1" parent="1">
                    <mxGeometry x="165.5" y="865" width="112" height="96" as="geometry"/>
                </mxCell>
                <mxCell id="69" value="" style="edgeStyle=elbowEdgeStyle;html=1;entryX=0.542;entryY=1.091;entryDx=0;entryDy=0;endArrow=none;entryPerimeter=0;" edge="1" parent="1" source="68" target="70">
                    <mxGeometry relative="1" as="geometry">
                        <mxPoint x="165.5" y="913" as="sourcePoint"/>
                        <mxPoint x="145" y="791.5" as="targetPoint"/>
                        <Array as="points">
                            <mxPoint x="113" y="913"/>
                            <mxPoint x="113" y="895"/>
                        </Array>
                    </mxGeometry>
                </mxCell>
                <mxCell id="70" value="then" style="text;html=1;align=center;verticalAlign=middle;resizable=0;points=[];autosize=1;strokeColor=none;fillColor=none;" vertex="1" parent="1">
                    <mxGeometry x="91" y="846" width="41" height="26" as="geometry"/>
                </mxCell>
                <mxCell id="71" value="" style="edgeStyle=elbowEdgeStyle;html=1;endArrow=none;" edge="1" parent="1" source="68" target="72">
                    <mxGeometry relative="1" as="geometry">
                        <mxPoint x="221.5" y="1092.4933547973633" as="targetPoint"/>
                        <mxPoint x="222" y="960.5714285714287" as="sourcePoint"/>
                    </mxGeometry>
                </mxCell>
                <mxCell id="72" value="else" style="text;html=1;align=center;verticalAlign=middle;resizable=0;points=[];autosize=1;strokeColor=none;fillColor=none;" vertex="1" parent="1">
                    <mxGeometry x="201.5" y="979" width="40" height="26" as="geometry"/>
                </mxCell>
                <mxCell id="73" value="Stop" style="ellipse;whiteSpace=wrap;html=1;" vertex="1" parent="1">
                    <mxGeometry x="181.75" y="1039" width="79.5" height="44" as="geometry"/>
                </mxCell>
                <mxCell id="74" value="" style="rounded=1;whiteSpace=wrap;html=1;dashed=1;" vertex="1" parent="1">
                    <mxGeometry x="202" y="1216" width="467" height="488" as="geometry"/>
                </mxCell>
                <mxCell id="75" style="edgeStyle=none;html=1;entryX=0.5;entryY=0;entryDx=0;entryDy=0;" edge="1" parent="1" source="76" target="104">
                    <mxGeometry relative="1" as="geometry">
                        <mxPoint x="103" y="1369" as="targetPoint"/>
                    </mxGeometry>
                </mxCell>
                <mxCell id="76" value="Start" style="ellipse;whiteSpace=wrap;html=1;" vertex="1" parent="1">
                    <mxGeometry x="56" y="1200" width="76" height="45" as="geometry"/>
                </mxCell>
                <mxCell id="77" value="Stop" style="ellipse;whiteSpace=wrap;html=1;" vertex="1" parent="1">
                    <mxGeometry x="364" y="1891.5" width="76" height="45" as="geometry"/>
                </mxCell>
                <mxCell id="78" style="edgeStyle=orthogonalEdgeStyle;html=1;entryX=0;entryY=0.5;entryDx=0;entryDy=0;" edge="1" parent="1" source="80" target="114">
                    <mxGeometry relative="1" as="geometry"/>
                </mxCell>
                <mxCell id="79" style="edgeStyle=orthogonalEdgeStyle;html=1;entryX=1;entryY=0.5;entryDx=0;entryDy=0;" edge="1" parent="1" source="80" target="94">
                    <mxGeometry relative="1" as="geometry"/>
                </mxCell>
                <mxCell id="80" value="RAPL / main.c" style="rounded=1;whiteSpace=wrap;html=1;" vertex="1" parent="1">
                    <mxGeometry x="509.25" y="1494" width="120" height="60" as="geometry"/>
                </mxCell>
                <mxCell id="81" style="edgeStyle=elbowEdgeStyle;html=1;entryX=0.5;entryY=0;entryDx=0;entryDy=0;" edge="1" parent="1" source="82" target="80">
                    <mxGeometry relative="1" as="geometry"/>
                </mxCell>
                <mxCell id="82" value="args[]" style="swimlane;startSize=23;" vertex="1" parent="1">
                    <mxGeometry x="476.5" y="1319" width="167.5" height="138" as="geometry"/>
                </mxCell>
                <mxCell id="83" value="1: Algorithm ( .java file )" style="text;html=1;align=left;verticalAlign=middle;resizable=0;points=[];autosize=1;strokeColor=none;fillColor=none;" vertex="1" parent="82">
                    <mxGeometry x="11.5" y="33" width="143" height="26" as="geometry"/>
                </mxCell>
                <mxCell id="84" value="4: Repititions ( n )" style="text;html=1;align=left;verticalAlign=middle;resizable=0;points=[];autosize=1;strokeColor=none;fillColor=none;" vertex="1" parent="82">
                    <mxGeometry x="11.5" y="111" width="112" height="26" as="geometry"/>
                </mxCell>
                <mxCell id="85" value="3: Test name" style="text;html=1;align=left;verticalAlign=middle;resizable=0;points=[];autosize=1;strokeColor=none;fillColor=none;" vertex="1" parent="82">
                    <mxGeometry x="11.5" y="85" width="86" height="26" as="geometry"/>
                </mxCell>
                <mxCell id="86" value="2: Output path" style="text;html=1;align=left;verticalAlign=middle;resizable=0;points=[];autosize=1;strokeColor=none;fillColor=none;" vertex="1" parent="82">
                    <mxGeometry x="11.5" y="59" width="94" height="26" as="geometry"/>
                </mxCell>
                <mxCell id="87" style="edgeStyle=elbowEdgeStyle;html=1;" edge="1" parent="1" source="88">
                    <mxGeometry relative="1" as="geometry">
                        <mxPoint x="475.17698669433594" y="1364.7434768676758" as="targetPoint"/>
                    </mxGeometry>
                </mxCell>
                <mxCell id="88" value="Java / algorithm /algorithm.Java" style="rounded=1;whiteSpace=wrap;html=1;" vertex="1" parent="1">
                    <mxGeometry x="223.25" y="1383" width="192.75" height="60" as="geometry"/>
                </mxCell>
                <mxCell id="89" style="edgeStyle=elbowEdgeStyle;html=1;entryX=0.5;entryY=0;entryDx=0;entryDy=0;" edge="1" parent="1" source="90" target="88">
                    <mxGeometry relative="1" as="geometry"/>
                </mxCell>
                <mxCell id="90" value="args[]" style="swimlane;startSize=23;" vertex="1" parent="1">
                    <mxGeometry x="235.88" y="1259" width="167.5" height="87" as="geometry"/>
                </mxCell>
                <mxCell id="91" value="1: Input path" style="text;html=1;align=left;verticalAlign=middle;resizable=0;points=[];autosize=1;strokeColor=none;fillColor=none;" vertex="1" parent="90">
                    <mxGeometry x="11.5" y="33" width="85" height="26" as="geometry"/>
                </mxCell>
                <mxCell id="92" value="2: Input size" style="text;html=1;align=left;verticalAlign=middle;resizable=0;points=[];autosize=1;strokeColor=none;fillColor=none;" vertex="1" parent="90">
                    <mxGeometry x="11.5" y="59" width="83" height="26" as="geometry"/>
                </mxCell>
                <mxCell id="93" style="edgeStyle=orthogonalEdgeStyle;html=1;entryX=0.98;entryY=0.528;entryDx=0;entryDy=0;entryPerimeter=0;endArrow=none;endFill=0;" edge="1" parent="1" source="94" target="98">
                    <mxGeometry relative="1" as="geometry"/>
                </mxCell>
                <mxCell id="94" value="if more sizes left" style="rhombus;whiteSpace=wrap;html=1;" vertex="1" parent="1">
                    <mxGeometry x="397.25" y="1587" width="112" height="96" as="geometry"/>
                </mxCell>
                <mxCell id="95" style="edgeStyle=elbowEdgeStyle;html=1;" edge="1" parent="1" source="96">
                    <mxGeometry relative="1" as="geometry">
                        <mxPoint x="454.75" y="1525.1601333618164" as="targetPoint"/>
                    </mxGeometry>
                </mxCell>
                <mxCell id="96" value="then" style="text;html=1;align=center;verticalAlign=middle;resizable=0;points=[];autosize=1;strokeColor=none;fillColor=none;" vertex="1" parent="1">
                    <mxGeometry x="435.75" y="1566" width="41" height="26" as="geometry"/>
                </mxCell>
                <mxCell id="97" style="edgeStyle=orthogonalEdgeStyle;html=1;entryX=0;entryY=0.5;entryDx=0;entryDy=0;endArrow=classic;endFill=1;" edge="1" parent="1" source="98" target="102">
                    <mxGeometry relative="1" as="geometry">
                        <Array as="points">
                            <mxPoint x="94" y="1635"/>
                            <mxPoint x="94" y="1751"/>
                        </Array>
                    </mxGeometry>
                </mxCell>
                <mxCell id="98" value="else" style="text;html=1;align=center;verticalAlign=middle;resizable=0;points=[];autosize=1;strokeColor=none;fillColor=none;" vertex="1" parent="1">
                    <mxGeometry x="316.5" y="1622" width="40" height="26" as="geometry"/>
                </mxCell>
                <mxCell id="99" style="edgeStyle=orthogonalEdgeStyle;html=1;entryX=0;entryY=0.5;entryDx=0;entryDy=0;" edge="1" parent="1" source="100" target="77">
                    <mxGeometry relative="1" as="geometry"/>
                </mxCell>
                <mxCell id="100" value="wlp4s0 up&lt;br&gt;(network card up)" style="rounded=1;whiteSpace=wrap;html=1;" vertex="1" parent="1">
                    <mxGeometry x="189" y="1884" width="120" height="60" as="geometry"/>
                </mxCell>
                <mxCell id="101" style="edgeStyle=orthogonalEdgeStyle;html=1;entryX=0.5;entryY=1;entryDx=0;entryDy=0;" edge="1" parent="1" source="102" target="114">
                    <mxGeometry relative="1" as="geometry"/>
                </mxCell>
                <mxCell id="102" value="Worst measure" style="rounded=1;whiteSpace=wrap;html=1;dashed=1;" vertex="1" parent="1">
                    <mxGeometry x="192.25" y="1721" width="113.5" height="60" as="geometry"/>
                </mxCell>
                <mxCell id="103" style="edgeStyle=orthogonalEdgeStyle;html=1;startArrow=none;" edge="1" parent="1" source="111" target="109">
                    <mxGeometry relative="1" as="geometry"/>
                </mxCell>
                <mxCell id="104" value="Java / measureAll" style="rounded=1;whiteSpace=wrap;html=1;" vertex="1" parent="1">
                    <mxGeometry x="34" y="1280" width="120" height="60" as="geometry"/>
                </mxCell>
                <mxCell id="105" value="Best case" style="text;html=1;align=center;verticalAlign=middle;resizable=0;points=[];autosize=1;strokeColor=none;fillColor=none;" vertex="1" parent="1">
                    <mxGeometry x="235.88" y="1230" width="71" height="26" as="geometry"/>
                </mxCell>
                <mxCell id="106" style="edgeStyle=orthogonalEdgeStyle;html=1;entryX=0;entryY=0.5;entryDx=0;entryDy=0;" edge="1" parent="1" source="109" target="80">
                    <mxGeometry relative="1" as="geometry"/>
                </mxCell>
                <mxCell id="107" style="edgeStyle=orthogonalEdgeStyle;html=1;entryX=0;entryY=0.5;entryDx=0;entryDy=0;endArrow=classic;endFill=1;" edge="1" parent="1" source="109" target="113">
                    <mxGeometry relative="1" as="geometry">
                        <Array as="points">
                            <mxPoint x="94" y="1836"/>
                        </Array>
                    </mxGeometry>
                </mxCell>
                <mxCell id="108" style="edgeStyle=orthogonalEdgeStyle;html=1;entryX=0;entryY=0.5;entryDx=0;entryDy=0;endArrow=classic;endFill=1;" edge="1" parent="1" source="109" target="100">
                    <mxGeometry relative="1" as="geometry">
                        <Array as="points">
                            <mxPoint x="94" y="1914"/>
                        </Array>
                    </mxGeometry>
                </mxCell>
                <mxCell id="109" value="Java / algortihm / measure" style="rounded=1;whiteSpace=wrap;html=1;" vertex="1" parent="1">
                    <mxGeometry x="17" y="1494" width="154" height="60" as="geometry"/>
                </mxCell>
                <mxCell id="110" value="" style="edgeStyle=orthogonalEdgeStyle;html=1;endArrow=none;" edge="1" parent="1" source="104" target="111">
                    <mxGeometry relative="1" as="geometry">
                        <mxPoint x="101" y="1339" as="sourcePoint"/>
                        <mxPoint x="101" y="1494" as="targetPoint"/>
                    </mxGeometry>
                </mxCell>
                <mxCell id="111" value="wlp4s0 down&lt;br&gt;(network card down)&lt;br&gt;&lt;br&gt;modprobe msr" style="rounded=1;whiteSpace=wrap;html=1;" vertex="1" parent="1">
                    <mxGeometry x="34" y="1369" width="120" height="72" as="geometry"/>
                </mxCell>
                <mxCell id="112" style="edgeStyle=orthogonalEdgeStyle;html=1;" edge="1" parent="1" source="113" target="114">
                    <mxGeometry relative="1" as="geometry"/>
                </mxCell>
                <mxCell id="113" value="Random measure" style="rounded=1;whiteSpace=wrap;html=1;dashed=1;" vertex="1" parent="1">
                    <mxGeometry x="189" y="1806" width="120" height="60" as="geometry"/>
                </mxCell>
                <mxCell id="114" value="algorithm-PC##.csv" style="rounded=1;whiteSpace=wrap;html=1;" vertex="1" parent="1">
                    <mxGeometry x="689" y="1494" width="120" height="60" as="geometry"/>
                </mxCell>
                <mxCell id="115" value="output" style="text;html=1;align=center;verticalAlign=middle;resizable=0;points=[];autosize=1;strokeColor=none;fillColor=none;dashed=1;" vertex="1" parent="1">
                    <mxGeometry x="688" y="1471" width="51" height="26" as="geometry"/>
                </mxCell>
            </root>
        </mxGraphModel>
    </diagram>
</mxfile>